<svg version="1.2" xmlns="http://www.w3.org/2000/svg" viewBox="0 0 512 512" width="512" height="512">
	<title>New Project</title>
	<style>
		.s0 { fill: #ffffff } 
		.s1 { fill: #000000 } 
		.s2 { fill: #15af19 } 
	</style>
	<g id="&lt;Group&gt;">
		<path id="&lt;Path&gt;" class="s0" d="m6 22c0-8.8 7.2-16 16-16h468.9c8.9 0 16 7.2 16 16v468.9c0 8.9-7.1 16-16 16h-468.9c-8.8 0-16-7.1-16-16z"/>
		<path id="&lt;Path&gt;" class="s1" d="m205 40.2c0 0 121.9 65.8 134.6 70.9 25.6 10.1 50.8 32.5 50.8 32.5l-40.8 53.6z"/>
		<path id="&lt;Compound Path&gt;" class="s2" d="m114.8 396.5l39.7-55.8c24.3 25.3 62 46.5 109.4 46.5 40.3 0 59.9-18.6 59.9-38.2 0-60.9-198.2-19.1-198.2-148.7 0-57.3 49.6-104.7 130.6-104.7 54.7 0 100.1 16.5 134.2 48l-40.8 53.6c-27.8-25.8-65-37.6-100.1-37.6-31.5 0-49 13.9-49 34.5 0 54.7 197.6 18.1 197.6 146.6 0 63-44.9 110.5-137.8 110.5-66 0-113.5-22.2-145.5-54.7z"/>
	</g>
</svg>